<svg width="130" height="124" viewBox="0 0 130 124" fill="none" xmlns="http://www.w3.org/2000/svg">
<mask id="path-1-inside-1_40692_24445" fill="white">
<path d="M70.4752 36.9234C74.713 36.1578 81.2584 35.4928 82.6588 37.9439C83.4534 39.4752 82.8481 41.8529 79.0387 44.2837C76.919 45.5602 65.113 52.4034 62.443 54.3628C58.7481 57.0743 58.6424 60.0002 59.7018 62.5523C62.6154 70.7192 68.984 86.4275 70.1031 89.6411C71.3729 93.2872 70.9014 95.6258 69.4645 96.5708C67.3637 97.9523 64.6478 97.1544 61.4694 93.5816C59.3503 91.2846 53.7476 84.0681 49.2447 76.4116C46.0663 71.3074 42.8616 65.0726 39.0319 57.5132C35.82 48.8497 40.5438 46.1112 47.1656 43.5591C54.3173 40.7517 64.6479 37.9442 70.4752 36.9234ZM84.8795 51.6773C87.1656 51.2502 90.398 50.5273 91.4518 52.2466C91.9734 53.0978 91.5535 54.4269 89.4986 55.7827C88.3548 56.4951 82.4038 60.266 80.5465 61.4048C78.4033 62.686 78.4965 64.5495 79.068 65.9732C80.6397 70.5287 84.0746 79.291 84.6783 81.0835C85.0291 82.1253 85.0519 83.4309 85.0133 83.7007C84.779 85.3345 83.0168 85.563 81.7067 84.7817C81.1812 84.4684 80.6222 83.9795 80.0211 83.2808C78.8779 81.9993 75.8553 77.9742 73.4264 73.7036C71.7118 70.8565 69.9835 67.3783 67.9176 63.1616C66.1852 58.3293 68.7334 56.802 72.3053 55.3784C76.1631 53.8125 81.7361 52.2467 84.8795 51.6773Z"/>
</mask>
<path d="M70.4752 36.9234C74.713 36.1578 81.2584 35.4928 82.6588 37.9439C83.4534 39.4752 82.8481 41.8529 79.0387 44.2837C76.919 45.5602 65.113 52.4034 62.443 54.3628C58.7481 57.0743 58.6424 60.0002 59.7018 62.5523C62.6154 70.7192 68.984 86.4275 70.1031 89.6411C71.3729 93.2872 70.9014 95.6258 69.4645 96.5708C67.3637 97.9523 64.6478 97.1544 61.4694 93.5816C59.3503 91.2846 53.7476 84.0681 49.2447 76.4116C46.0663 71.3074 42.8616 65.0726 39.0319 57.5132C35.82 48.8497 40.5438 46.1112 47.1656 43.5591C54.3173 40.7517 64.6479 37.9442 70.4752 36.9234ZM84.8795 51.6773C87.1656 51.2502 90.398 50.5273 91.4518 52.2466C91.9734 53.0978 91.5535 54.4269 89.4986 55.7827C88.3548 56.4951 82.4038 60.266 80.5465 61.4048C78.4033 62.686 78.4965 64.5495 79.068 65.9732C80.6397 70.5287 84.0746 79.291 84.6783 81.0835C85.0291 82.1253 85.0519 83.4309 85.0133 83.7007C84.779 85.3345 83.0168 85.563 81.7067 84.7817C81.1812 84.4684 80.6222 83.9795 80.0211 83.2808C78.8779 81.9993 75.8553 77.9742 73.4264 73.7036C71.7118 70.8565 69.9835 67.3783 67.9176 63.1616C66.1852 58.3293 68.7334 56.802 72.3053 55.3784C76.1631 53.8125 81.7361 52.2467 84.8795 51.6773Z" fill="url(#paint0_linear_40692_24445)"/>
<path d="M70.4752 36.9234L70.5615 37.4159L70.5641 37.4154L70.4752 36.9234ZM82.6588 37.9439L83.1026 37.7136L83.098 37.7046L83.0929 37.6958L82.6588 37.9439ZM79.0387 44.2837L79.2967 44.7122L79.3076 44.7052L79.0387 44.2837ZM62.443 54.3628L62.1472 53.9597L62.1472 53.9597L62.443 54.3628ZM59.7018 62.5523L60.1727 62.3843L60.1684 62.3723L60.1636 62.3606L59.7018 62.5523ZM70.1031 89.6411L70.5753 89.4767V89.4767L70.1031 89.6411ZM69.4645 96.5708L69.7392 96.9886L69.7392 96.9886L69.4645 96.5708ZM61.4694 93.5816L61.843 93.2492L61.8369 93.2425L61.4694 93.5816ZM49.2447 76.4116L49.6759 76.1581L49.6692 76.1473L49.2447 76.4116ZM39.0319 57.5132L38.563 57.687L38.5729 57.7137L38.5858 57.7392L39.0319 57.5132ZM47.1656 43.5591L47.3455 44.0257L47.3483 44.0245L47.1656 43.5591ZM84.8795 51.6773L84.9686 52.1693L84.9713 52.1688L84.8795 51.6773ZM91.4518 52.2466L91.8781 51.9854L91.8781 51.9853L91.4518 52.2466ZM89.4986 55.7827L89.763 56.2073L89.774 56.2001L89.4986 55.7827ZM80.5465 61.4048L80.8031 61.834L80.8079 61.8311L80.5465 61.4048ZM79.068 65.9732L79.5406 65.8101L79.5366 65.7984L79.532 65.7869L79.068 65.9732ZM84.6783 81.0835L85.1522 80.924L85.1522 80.9239L84.6783 81.0835ZM85.0133 83.7007L85.5082 83.7717L85.5082 83.7716L85.0133 83.7007ZM81.7067 84.7817L81.4506 85.2112L81.4506 85.2112L81.7067 84.7817ZM80.0211 83.2808L80.4002 82.9546L80.3942 82.9479L80.0211 83.2808ZM73.4264 73.7036L73.8611 73.4564L73.8547 73.4457L73.4264 73.7036ZM67.9176 63.1616L67.4469 63.3304L67.4563 63.3566L67.4686 63.3816L67.9176 63.1616ZM72.3053 55.3784L72.4904 55.8429L72.4933 55.8417L72.3053 55.3784ZM70.4752 36.9234L70.5641 37.4154C72.6705 37.0349 75.3288 36.6838 77.6215 36.7273C78.7693 36.7491 79.799 36.8695 80.6129 37.1205C81.4335 37.3736 81.9647 37.7369 82.2247 38.1919L82.6588 37.9439L83.0929 37.6958C82.6527 36.9253 81.8405 36.4526 80.9076 36.1649C79.9679 35.8751 78.8339 35.7501 77.6405 35.7275C75.2509 35.6821 72.5177 36.0463 70.3863 36.4313L70.4752 36.9234ZM82.6588 37.9439L82.215 38.1742C82.5318 38.7847 82.5924 39.5948 82.1253 40.5584C81.6515 41.536 80.6289 42.6759 78.7697 43.8622L79.0387 44.2837L79.3076 44.7052C81.2579 43.4607 82.4427 42.1964 83.0252 40.9946C83.6145 39.7787 83.5804 38.6343 83.1026 37.7136L82.6588 37.9439ZM79.0387 44.2837L78.7808 43.8554C77.7189 44.4948 74.2522 46.516 70.6913 48.6376C67.1513 50.7468 63.5064 52.9622 62.1472 53.9597L62.443 54.3628L62.7388 54.7659C64.0496 53.804 67.6427 51.6181 71.2031 49.4967C74.7426 47.3878 78.2388 45.3491 79.2966 44.712L79.0387 44.2837ZM62.443 54.3628L62.1472 53.9597C60.2314 55.3656 59.1966 56.8652 58.8052 58.3933C58.4146 59.9182 58.6828 61.4016 59.24 62.7439L59.7018 62.5523L60.1636 62.3606C59.6614 61.1508 59.4528 59.8953 59.7739 58.6414C60.0943 57.3906 60.9597 56.0715 62.7388 54.7659L62.443 54.3628ZM59.7018 62.5523L59.2308 62.7203C60.6907 66.8123 63.0142 72.7885 65.1099 78.1366C67.2099 83.496 69.0756 88.2108 69.631 89.8056L70.1031 89.6411L70.5753 89.4767C70.0116 87.8579 68.1333 83.1117 66.0409 77.7718C63.9441 72.4206 61.6265 66.4591 60.1727 62.3843L59.7018 62.5523ZM70.1031 89.6411L69.631 89.8056C70.2508 91.5855 70.4291 93.0016 70.3023 94.0594C70.1766 95.109 69.7568 95.7801 69.1897 96.1531L69.4645 96.5708L69.7392 96.9886C70.609 96.4165 71.1434 95.4458 71.2952 94.1783C71.4461 92.919 71.2252 91.3429 70.5753 89.4767L70.1031 89.6411ZM69.4645 96.5708L69.1897 96.153C68.2793 96.7518 67.24 96.8878 66.0377 96.4627C64.8108 96.0288 63.4044 95.0044 61.8429 93.2492L61.4694 93.5816L61.0958 93.9139C62.7128 95.7315 64.2536 96.8925 65.7044 97.4055C67.1798 97.9272 68.5488 97.7714 69.7392 96.9886L69.4645 96.5708ZM61.4694 93.5816L61.8369 93.2425C59.7451 90.9751 54.1631 83.7882 49.6757 76.1582L49.2447 76.4116L48.8138 76.6651C53.3322 84.348 58.9556 91.5941 61.1019 93.9206L61.4694 93.5816ZM49.2447 76.4116L49.6692 76.1473C46.5044 71.0651 43.3095 64.8504 39.4779 57.2872L39.0319 57.5132L38.5858 57.7392C42.4136 65.2948 45.6282 71.5497 48.8203 76.6759L49.2447 76.4116ZM39.0319 57.5132L39.5007 57.3394C37.9294 53.1011 38.3429 50.4506 39.8072 48.5495C41.3175 46.5887 44.0214 45.3068 47.3455 44.0256L47.1656 43.5591L46.9858 43.0925C43.688 44.3636 40.7191 45.7269 39.015 47.9393C37.265 50.2113 36.9225 53.2617 38.563 57.687L39.0319 57.5132ZM47.1656 43.5591L47.3483 44.0245C54.4688 41.2294 64.7671 38.431 70.5615 37.4159L70.4752 36.9234L70.3889 36.4309C64.5287 37.4575 54.1658 40.274 46.9829 43.0937L47.1656 43.5591ZM84.8795 51.6773L84.9713 52.1688C86.1357 51.9512 87.4633 51.6753 88.6356 51.657C89.8353 51.6382 90.6491 51.8938 91.0255 52.5079L91.4518 52.2466L91.8781 51.9853C91.2007 50.8801 89.8714 50.6375 88.6199 50.6571C87.3411 50.6771 85.9094 50.9762 84.7877 51.1858L84.8795 51.6773ZM91.4518 52.2466L91.0255 52.5078C91.1813 52.7622 91.2278 53.1226 90.992 53.6062C90.7488 54.1048 90.2087 54.7152 89.2233 55.3654L89.4986 55.7827L89.774 56.2001C90.8434 55.4944 91.5407 54.7623 91.8908 54.0446C92.2481 53.3119 92.2438 52.5821 91.8781 51.9854L91.4518 52.2466ZM89.4986 55.7827L89.2343 55.3583C88.08 56.0772 82.1429 59.8395 80.2851 60.9785L80.5465 61.4048L80.8079 61.8311C82.6647 60.6925 88.6296 56.913 89.763 56.2072L89.4986 55.7827ZM80.5465 61.4048L80.2899 60.9756C79.1141 61.6786 78.5062 62.575 78.3004 63.5303C78.0989 64.4659 78.2967 65.3939 78.604 66.1594L79.068 65.9732L79.532 65.7869C79.2678 65.1288 79.1332 64.4132 79.278 63.7409C79.4186 63.0882 79.8357 62.4123 80.8031 61.834L80.5465 61.4048ZM79.068 65.9732L78.5953 66.1362C79.3841 68.4224 80.6385 71.7591 81.7686 74.7416C82.9029 77.7352 83.9066 80.3586 84.2045 81.2431L84.6783 81.0835L85.1522 80.9239C84.8464 80.0159 83.8308 77.3618 82.7037 74.3873C81.5725 71.4017 80.3236 68.0795 79.5406 65.8101L79.068 65.9732ZM84.6783 81.0835L84.2045 81.2431C84.3629 81.7134 84.4511 82.258 84.4939 82.727C84.5378 83.2081 84.5291 83.5546 84.5183 83.6298L85.0133 83.7007L85.5082 83.7716C85.5361 83.577 85.5353 83.1358 85.4898 82.6362C85.4431 82.1245 85.3446 81.4954 85.1522 80.924L84.6783 81.0835ZM85.0133 83.7007L84.5184 83.6297C84.4311 84.2384 84.085 84.5474 83.6384 84.6628C83.1567 84.7872 82.525 84.6876 81.9627 84.3523L81.7067 84.7817L81.4506 85.2112C82.1984 85.6572 83.1029 85.8339 83.8885 85.631C84.709 85.419 85.3613 84.7968 85.5082 83.7717L85.0133 83.7007ZM81.7067 84.7817L81.9628 84.3523C81.4976 84.0749 80.9786 83.6271 80.4002 82.9547L80.0211 83.2808L79.6421 83.6069C80.2658 84.3319 80.8648 84.8618 81.4506 85.2112L81.7067 84.7817ZM80.0211 83.2808L80.3942 82.9479C79.2776 81.6963 76.275 77.7008 73.861 73.4564L73.4264 73.7036L72.9918 73.9508C75.4355 78.2476 78.4782 82.3023 79.648 83.6136L80.0211 83.2808ZM73.4264 73.7036L73.8547 73.4457C72.1533 70.6203 70.4343 67.1621 68.3666 62.9417L67.9176 63.1616L67.4686 63.3816C69.5326 67.5944 71.2704 71.0926 72.9981 73.9616L73.4264 73.7036ZM67.9176 63.1616L68.3883 62.9929C67.5544 60.667 67.7927 59.2712 68.5233 58.2904C69.295 57.2545 70.6929 56.5593 72.4904 55.8429L72.3053 55.3784L72.1202 54.914C70.3458 55.6211 68.6836 56.4013 67.7213 57.693C66.718 59.0399 66.5484 60.824 67.4469 63.3304L67.9176 63.1616ZM72.3053 55.3784L72.4933 55.8417C76.3193 54.2887 81.8591 52.7325 84.9686 52.1693L84.8795 51.6773L84.7904 51.1853C81.613 51.7609 76.0069 53.3362 72.1172 54.9151L72.3053 55.3784Z" fill="url(#paint1_linear_40692_24445)" mask="url(#path-1-inside-1_40692_24445)"/>
<defs>
<linearGradient id="paint0_linear_40692_24445" x1="108.287" y1="29.761" x2="31.7561" y2="47.8025" gradientUnits="userSpaceOnUse">
<stop stop-color="white"/>
<stop offset="1" stop-color="#FFD09D"/>
</linearGradient>
<linearGradient id="paint1_linear_40692_24445" x1="185.554" y1="139.9" x2="-35.8318" y2="-20.2497" gradientUnits="userSpaceOnUse">
<stop stop-color="white"/>
<stop offset="0.5" stop-color="#763F00" stop-opacity="0"/>
<stop offset="1" stop-color="#DC7600"/>
</linearGradient>
</defs>
</svg>
